<?xml version="1.0" standalone="no"?>
<!DOCTYPE svg PUBLIC "-//W3C//DTD SVG 20010904//EN"
 "http://www.w3.org/TR/2001/REC-SVG-20010904/DTD/svg10.dtd">
<svg version="1.0" xmlns="http://www.w3.org/2000/svg"
 width="1024.000000pt" height="1024.000000pt" viewBox="0 0 1024.000000 1024.000000"
 preserveAspectRatio="xMidYMid meet">

<g transform="translate(0.000000,1024.000000) scale(0.100000,-0.100000)"
fill="#000000" stroke="none">
<path d="M4835 9493 c-27 -2 -111 -10 -185 -19 -1326 -151 -2437 -821 -3160
-1904 -415 -621 -656 -1323 -721 -2097 -15 -181 -7 -651 15 -833 101 -856 441
-1658 979 -2315 71 -86 278 -314 323 -355 195 -177 262 -236 344 -301 458
-363 937 -612 1499 -778 247 -74 536 -128 826 -157 134 -13 230 -15 455 -11
328 7 535 29 808 88 1217 261 2265 1014 2875 2065 79 135 226 420 266 514 13
30 31 71 41 90 9 19 20 48 24 63 4 16 11 25 17 21 7 -4 9 2 5 17 -4 18 -2 16
8 -6 9 -17 13 -47 11 -70 -4 -29 -3 -33 3 -15 8 24 9 24 48 -26 22 -28 45 -49
52 -46 7 2 24 -3 37 -12 27 -18 71 -21 80 -7 3 5 19 13 36 16 20 5 38 18 51
41 11 19 25 34 30 34 6 0 8 7 4 15 -4 11 6 9 38 -9 47 -26 64 -23 71 14 6 29
45 149 56 172 9 18 12 48 5 48 -2 0 -23 -7 -46 -15 -46 -16 -61 -19 -45 -7 13
9 35 79 27 86 -3 3 -97 6 -210 6 -190 0 -204 1 -197 18 24 62 99 382 125 532
66 375 80 970 30 1295 -5 33 -14 96 -20 140 -40 279 -126 605 -237 895 -221
576 -543 1078 -972 1513 -281 286 -552 502 -866 692 -573 346 -1214 553 -1869
605 -117 9 -539 11 -661 3z m1986 -2630 c13 -16 12 -17 -3 -4 -10 7 -18 15
-18 17 0 8 8 3 21 -13z m-1611 -1595 c108 -55 128 -185 43 -278 -79 -89 -221
-76 -283 26 -18 29 -22 46 -18 98 5 77 38 128 102 157 55 25 102 24 156 -3z
m1114 -1614 c7 -19 -10 -44 -31 -44 -17 0 -27 24 -19 45 7 20 42 19 50 -1z
m147 5 c17 -8 18 -13 8 -25 -8 -9 -21 -13 -35 -10 -28 7 -54 -2 -54 -19 0 -6
18 -20 41 -30 51 -23 72 -54 63 -89 -13 -53 -76 -71 -136 -40 -28 14 -29 17
-15 31 13 14 20 14 47 3 27 -11 34 -11 47 3 13 13 14 19 4 31 -7 8 -23 18 -34
22 -34 10 -67 45 -67 70 0 47 81 80 131 53z m569 -50 l0 -60 33 25 c19 15 47
26 62 26 l29 0 -39 -40 -39 -40 44 -45 44 -45 -30 0 c-21 0 -39 10 -59 30 -16
17 -32 30 -37 30 -4 0 -8 -13 -8 -30 0 -23 -4 -30 -20 -30 -19 0 -20 7 -20
120 0 113 1 120 20 120 18 0 20 -7 20 -61z m127 29 c-3 -8 -6 -5 -6 6 -1 11 2
17 5 13 3 -3 4 -12 1 -19z m34 13 c7 11 9 10 9 -3 0 -10 -7 -18 -15 -18 -8 0
-15 8 -14 18 0 12 2 13 6 3 5 -11 7 -11 14 0z m-621 -31 c0 -15 7 -20 25 -20
18 0 25 -5 25 -20 0 -15 -7 -20 -26 -20 -23 0 -25 -3 -22 -42 2 -36 7 -44 26
-46 35 -5 30 -42 -6 -42 -46 0 -64 21 -70 78 -4 42 -8 52 -23 52 -12 0 -19 7
-19 20 0 13 7 20 20 20 13 0 20 7 20 20 0 15 7 20 25 20 18 0 25 -5 25 -20z
m-260 -105 c0 -84 0 -85 -25 -85 -25 0 -25 1 -25 78 0 84 3 92 32 92 16 0 18
-9 18 -85z m465 60 c17 -16 25 -35 25 -60 0 -25 -8 -44 -25 -60 -52 -53 -145
-16 -145 57 1 77 92 117 145 63z m175 7 c20 -16 20 -19 7 -31 -12 -9 -21 -10
-36 -1 -31 16 -63 -4 -59 -37 4 -36 32 -52 59 -35 18 12 24 11 37 -2 15 -14
14 -17 -3 -31 -41 -31 -116 -12 -135 35 -33 79 64 155 130 102z m-210 -337 l0
-75 -48 0 c-54 0 -72 12 -72 50 0 36 20 58 55 62 17 2 31 9 31 16 2 21 4 22
19 22 12 0 15 -15 15 -75z m50 60 c0 -8 -7 -15 -15 -15 -8 0 -15 7 -15 15 0 8
7 15 15 15 8 0 15 -7 15 -15z m550 -60 c0 -60 -3 -75 -15 -75 -12 0 -15 15
-15 75 0 60 3 75 15 75 12 0 15 -15 15 -75z m620 60 c0 -8 -7 -15 -15 -15 -8
0 -15 7 -15 15 0 8 7 15 15 15 8 0 15 -7 15 -15z m290 0 c0 -8 -7 -15 -15 -15
-8 0 -15 7 -15 15 0 8 7 15 15 15 8 0 15 -7 15 -15z m140 -59 l0 -73 -45 -1
c-50 -1 -75 16 -75 53 0 34 28 58 62 53 24 -4 28 -1 28 19 0 14 6 23 15 23 12
0 15 -15 15 -74z m-1999 48 c10 -13 10 -17 -2 -24 -8 -6 -18 -5 -23 0 -17 17
-54 11 -61 -10 -10 -32 4 -60 29 -60 12 0 26 4 32 10 5 5 15 6 23 0 12 -7 12
-11 2 -24 -18 -21 -79 -21 -103 1 -23 20 -24 80 -1 105 20 23 85 24 104 2z
m459 1 c0 -8 9 -15 20 -15 11 0 20 -4 20 -10 0 -5 -9 -10 -20 -10 -15 0 -20
-7 -20 -29 0 -20 6 -30 20 -34 30 -8 24 -27 -9 -27 -31 0 -41 14 -41 60 0 16
-6 31 -12 34 -10 5 -10 7 0 12 6 3 12 12 12 20 0 8 7 14 15 14 8 0 15 -7 15
-15z m-360 -26 c0 -6 -9 -13 -20 -16 -11 -3 -21 -12 -21 -19 -1 -8 -3 -18 -4
-24 -1 -5 -3 -17 -4 -25 0 -8 -8 -15 -16 -15 -12 0 -15 13 -15 55 l0 55 40 0
c22 0 40 -5 40 -11z m104 -5 c28 -28 20 -44 -24 -44 -22 0 -40 -4 -40 -9 0
-14 23 -19 42 -10 20 11 36 -7 20 -23 -19 -19 -75 -5 -91 23 -13 24 -13 29 2
53 20 30 66 35 91 10z m196 -39 c0 -42 -3 -55 -15 -55 -12 0 -15 13 -15 55 0
42 3 55 15 55 12 0 15 -13 15 -55z m143 40 c1 -5 -6 -11 -15 -13 -11 -2 -18 3
-18 13 0 17 30 18 33 0z m117 -20 l6 -30 11 33 c7 17 19 32 27 32 8 0 18 -14
22 -32 l7 -33 10 33 c6 17 16 32 23 32 17 0 17 -8 2 -65 -15 -56 -43 -62 -56
-12 l-8 32 -12 -33 c-14 -40 -42 -41 -52 -2 -22 81 -22 82 -3 78 11 -2 20 -15
23 -33z m234 13 c24 -34 20 -38 -30 -38 -30 0 -43 -4 -38 -11 3 -6 20 -9 36
-7 32 5 48 -9 27 -23 -41 -26 -99 1 -99 46 0 53 74 76 104 33z m171 2 c0 -14
-4 -15 -36 -7 -6 1 -16 -5 -22 -15 -15 -22 8 -51 32 -39 9 5 22 6 29 4 22 -8
-7 -33 -39 -33 -52 0 -79 59 -43 95 21 20 79 17 79 -5z m123 8 c7 -7 12 -26
12 -43 0 -17 -5 -36 -12 -43 -7 -7 -26 -12 -43 -12 -17 0 -36 5 -43 12 -7 7
-12 26 -12 43 0 17 5 36 12 43 7 7 26 12 43 12 17 0 36 -5 43 -12z m200 -45
c2 -43 0 -53 -12 -53 -12 0 -16 11 -16 41 0 33 -3 40 -17 37 -13 -2 -19 -14
-21 -41 -5 -53 -32 -51 -32 3 0 33 -3 40 -20 40 -17 0 -20 -7 -20 -40 0 -29
-4 -40 -15 -40 -11 0 -15 13 -15 54 l0 54 83 -2 82 -1 3 -52z m120 45 c7 -7
12 -20 12 -30 0 -14 -8 -18 -41 -18 -35 0 -40 -2 -29 -14 8 -11 18 -12 35 -6
16 6 27 6 31 -2 9 -14 -15 -28 -48 -28 -48 0 -72 45 -48 91 12 22 68 27 88 7z
m62 -43 c0 -42 -3 -55 -15 -55 -12 0 -15 13 -15 55 0 42 3 55 15 55 12 0 15
-13 15 -55z m117 43 c19 -15 17 -98 -2 -98 -11 0 -15 11 -15 40 0 33 -3 40
-20 40 -20 0 -35 -32 -28 -60 2 -8 -5 -16 -14 -18 -15 -3 -18 4 -18 51 l0 55
42 0 c23 1 48 -4 55 -10z m121 -7 c4 -11 -2 -13 -27 -8 -17 4 -31 3 -31 -2 0
-5 14 -11 31 -15 26 -5 30 -10 27 -33 -2 -24 -8 -29 -36 -31 -38 -4 -69 15
-52 32 7 7 14 6 22 -2 13 -13 38 -16 38 -4 0 4 -13 13 -30 19 -29 11 -40 39
-23 57 12 12 76 2 81 -13z m52 -36 c0 -42 -3 -55 -15 -55 -12 0 -15 13 -15 55
0 42 3 55 15 55 12 0 15 -13 15 -55z m254 39 c28 -28 20 -44 -24 -44 -22 0
-40 -4 -40 -9 0 -14 25 -20 41 -11 8 5 19 4 27 -2 18 -15 -2 -28 -44 -28 -36
0 -56 20 -56 55 0 14 5 32 12 40 16 20 64 19 84 -1z m-1571 -79 c1 -5 -6 -11
-15 -13 -11 -2 -18 3 -18 13 0 17 30 18 33 0z m-2203 -366 c15 -5 6 -6 -25 -2
-27 3 -57 9 -65 14 -17 9 51 0 90 -12z m87 -15 c-3 -3 -12 -4 -19 -1 -8 3 -5
6 6 6 11 1 17 -2 13 -5z"/>
<path d="M6708 3549 c-22 -12 -23 -52 -3 -69 36 -30 80 27 48 62 -18 21 -22
21 -45 7z"/>
<path d="M6670 3245 c-16 -20 -5 -45 20 -45 14 0 20 7 20 24 0 28 -24 41 -40
21z"/>
<path d="M8314 3235 c-4 -9 -2 -21 4 -27 16 -16 47 -5 47 17 0 26 -42 34 -51
10z"/>
<path d="M6545 3250 c-4 -6 6 -10 22 -10 22 0 25 2 13 10 -19 12 -27 12 -35 0z"/>
<path d="M7235 3250 c-3 -5 3 -10 15 -10 12 0 18 5 15 10 -3 6 -10 10 -15 10
-5 0 -12 -4 -15 -10z"/>
<path d="M7533 3253 c-7 -3 -13 -15 -13 -28 0 -24 16 -35 38 -28 6 3 12 15 12
28 0 24 -16 35 -37 28z"/>
<path d="M7845 3250 c-4 -6 5 -10 20 -10 15 0 24 4 20 10 -3 6 -12 10 -20 10
-8 0 -17 -4 -20 -10z"/>
<path d="M8455 3250 c-4 -6 5 -10 20 -10 15 0 24 4 20 10 -3 6 -12 10 -20 10
-8 0 -17 -4 -20 -10z"/>
<path d="M10232 3780 c-12 -79 -33 -294 -42 -419 -6 -85 -14 -159 -17 -164 -3
-6 -1 -7 4 -4 6 4 14 0 17 -9 3 -8 2 -12 -4 -9 -20 12 -9 -7 18 -31 l27 -26 3
172 c2 170 -1 519 -6 490z"/>
<path d="M10068 3621 c-5 -35 -8 -85 -7 -110 0 -40 2 -43 10 -22 5 14 8 63 7
110 l-3 86 -7 -64z"/>
<path d="M9240 3530 c-9 -16 -8 -18 5 -14 8 4 15 12 15 20 0 20 -7 17 -20 -6z"/>
</g>
</svg>
